# xmcd
#
# Track frame offsets: 
#        150
#        16159
#        36345
#        56202
#        79365
#        99125
#        123245
#        141392
#        154645
#
# Disc length: 2425 seconds
#
# Revision: 0
# Processed by: cddbd v1.5.1PL2 Copyright (c) Steve Scherf et al.
# Submitted via: ExactAudioCopy v0.95b3
#
DISCID=70097709
DTITLE=Smokey Wilson - Sings The Blues
DYEAR=1998
DGENRE=Blues
TTITLE0=Blues For Big Town
TTITLE1=I Wonder Why Strange Things Are Happening To Me
TTITLE2=Honey Bee
TTITLE3=I Wish I Was Single
TTITLE4=Loudella
TTITLE5=Someone, Guess Who
TTITLE6=I'm No Fool, I Know The Rule
TTITLE7=I Want You
TTITLE8=You Shadowed My Dreams
EXTD=
EXTT0=
EXTT1=
EXTT2=
EXTT3=
EXTT4=
EXTT5=
EXTT6=
EXTT7=
EXTT8=
PLAYORDER=
